<svg xmlns="http://www.w3.org/2000/svg" fill="none" viewBox="0 0 142 36">
  <path fill="#FFDB1E" d="m11.657 6.984 2.853 8.854-2.165 1.574-1.082-3.296c-2.656 1.328-9.148 6.296-7.672 7.575 1.475 1.279 7.033-1.722 9.099-2.853 2.066-1.131 7.476-5.115 6.64-6.542-.67-1.14-3.23-.278-4.427.295l-.688-2.311c.196-.131 1.19-.512 3.59-.984 3-.59 4.28-.295 5.804 3.295 1.525 3.591 2.705 8.067 2.558 11.707-.148 3.64-2.165 6.738-2.312 8.066-.148 1.328-.148 2.36-1.23 3.295-.865.748-2.524.079-3.295-.246-.92-.387-.982-.393-3.794-.674l-.141-.014c-4.659-.466-8.509-3.148-10.82-5.607-1.626-1.73-3.345-4.344-4.25-5.843a1.643 1.643 0 0 1-.224-1.184c1.01-4.797 7.35-8.792 10.523-10.237L9.351 8.003a2.853 2.853 0 0 1 1.004-3.183L16.317.376a.59.59 0 0 1 .847.152l.64.985a.59.59 0 0 1-.131.787l-6.016 4.684Z"/>
  <path fill="#FFDB1E" d="M6.61 6.686c.654.727 1.583 2.943.856 3.597-.726.654-2.833-.5-3.488-1.228a1.77 1.77 0 1 1 2.632-2.37ZM3.194 11.29c.782-.209 2.766-.06 2.976.721.21.782-1.435 1.902-2.217 2.112a1.466 1.466 0 0 1-.759-2.832Z"/>
  <path fill="#000" d="M31.855 28c-.213 0-.32-.107-.32-.32V11.267c0-.213.107-.32.32-.32h7.074c.205 0 .375.069.512.205l2.558 2.559a.7.7 0 0 1 .218.511v4.414a.673.673 0 0 1-.218.512l-2.558 2.558a.673.673 0 0 1-.512.218h-3.134v5.756c0 .213-.107.32-.32.32h-3.62Zm4.9-9.556c.707 0 1.19-.14 1.445-.422.264-.281.396-.815.396-1.6 0-.784-.132-1.317-.396-1.598-.256-.282-.738-.422-1.446-.422-.699 0-1.18.14-1.445.422-.256.281-.384.814-.384 1.599 0 .784.128 1.318.384 1.599.264.281.746.422 1.445.422ZM47.564 28a.674.674 0 0 1-.511-.218l-2.559-2.558a.674.674 0 0 1-.217-.512V11.268c0-.214.106-.32.32-.32h3.62c.213 0 .32.106.32.32v13.06c0 .171.085.256.255.256h2.098V11.268c0-.214.107-.32.32-.32h3.62c.214 0 .32.106.32.32V27.68c0 .213-.106.32-.32.32h-7.266Zm10.974 0c-.213 0-.32-.107-.32-.32V11.267c0-.213.107-.32.32-.32h6.934c.204 0 .375.056.511.167l2.943 2.917c.093.085.149.157.166.217a.81.81 0 0 1 .038.294v3.505c0 .111-.042.21-.128.295l-1.407 1.369-1.19 1.023 1.408 1.868 1.445 3.095c.034.077.06.154.077.23a.735.735 0 0 1 .038.256v1.497c0 .213-.106.32-.32.32h-3.377c-.187 0-.315-.085-.383-.256l-2.06-5.987h-.96v5.923c0 .213-.106.32-.32.32H58.54Zm5.143-9.377c.708 0 1.19-.145 1.445-.435.256-.298.384-.853.384-1.663 0-.818-.128-1.373-.384-1.663-.256-.298-.737-.448-1.445-.448-.7 0-1.181.15-1.446.448-.264.29-.396.845-.396 1.663 0 .81.132 1.365.396 1.663.265.29.746.435 1.446.435ZM74.699 28a.7.7 0 0 1-.511-.218l-2.559-2.558a.674.674 0 0 1-.217-.512v-10.49a.7.7 0 0 1 .217-.511l2.558-2.559a.722.722 0 0 1 .512-.204h5.028c.204 0 .375.068.511.204l2.559 2.559a.7.7 0 0 1 .217.511v10.49a.674.674 0 0 1-.217.512l-2.559 2.558a.674.674 0 0 1-.511.218h-5.028Zm1.51-3.416h2.008c.358 0 .537-.238.537-.716V15.08c0-.486-.179-.73-.537-.73H76.21c-.35 0-.525.244-.525.73v8.788c0 .478.175.716.525.716ZM86.014 28c-.213 0-.32-.107-.32-.32v-2.405c0-.11.004-.2.013-.268.017-.069.068-.124.153-.167l3.352-1.535v-2.277l-3.3-2.047a.417.417 0 0 1-.218-.384v-4.694c0-.137.009-.235.026-.295.017-.068.08-.14.192-.217l3.364-2.277c.085-.051.162-.09.23-.115a.692.692 0 0 1 .282-.051h3.454c.213 0 .32.106.32.32v2.174c0 .188-.064.316-.192.384l-3.352 1.381v2.367l3.352 1.919c.127.06.191.196.191.41v5.564c0 .068-.012.14-.038.218a.233.233 0 0 1-.128.166l-4.017 1.995c-.05.026-.115.06-.192.103a.454.454 0 0 1-.204.051h-2.968Zm13.52 0a.673.673 0 0 1-.511-.218l-2.559-2.558a.673.673 0 0 1-.217-.512V11.268c0-.214.106-.32.32-.32h3.62c.213 0 .32.106.32.32v13.06c0 .171.085.256.256.256h2.098V11.268c0-.214.106-.32.319-.32h3.621c.213 0 .32.106.32.32V27.68c0 .213-.107.32-.32.32h-7.266Zm10.463-.102c-.213 0-.32-.116-.32-.346v-4.068c0-.23.107-.345.32-.345h4.093c.214 0 .32.115.32.345v4.068c0 .23-.106.346-.32.346h-4.093Zm11.798.102a.816.816 0 0 1-.511-.166l-2.086-1.906-2.11-2.75a3.762 3.762 0 0 0-.179-.218c-.026-.034-.039-.111-.039-.23v-6.525c0-.119.013-.196.039-.23.034-.034.093-.107.179-.217l1.957-2.533 2.239-2.111a.793.793 0 0 1 .217-.14c.06-.018.158-.026.294-.026h3.16c.213 0 .32.106.32.32v2.046c0 .069-.009.141-.026.218-.008.068-.051.128-.128.179l-2.405 1.65-1.573 2.021v4.183l1.599 2.022 2.379 1.637a.27.27 0 0 1 .128.154c.017.06.026.123.026.191v2.111c0 .213-.107.32-.32.32h-3.16Zm9.246 0a.701.701 0 0 1-.512-.218l-2.558-2.558a.674.674 0 0 1-.218-.512v-10.49a.7.7 0 0 1 .218-.511l2.558-2.559a.723.723 0 0 1 .512-.204h5.027c.205 0 .376.068.512.204l2.559 2.559a.7.7 0 0 1 .217.511v10.49a.673.673 0 0 1-.217.512l-2.559 2.558a.673.673 0 0 1-.512.218h-5.027Zm1.51-3.416h2.008c.358 0 .537-.238.537-.716V15.08c0-.486-.179-.73-.537-.73h-2.008c-.35 0-.525.244-.525.73v8.788c0 .478.175.716.525.716Z"/>
</svg>
