<svg width="27" height="36" viewBox="0 0 27 36" fill="none" xmlns="http://www.w3.org/2000/svg">
<g clip-path="url(#clip0_525_18)">
<path d="M11.6569 6.98432L14.5097 15.8377L12.3455 17.4116L11.2634 14.1162C8.60744 15.4442 2.11497 20.4119 3.59053 21.6907C5.06609 22.9696 10.624 19.9693 12.6898 18.838C14.7556 17.7067 20.166 13.7227 19.3298 12.2963C18.6609 11.1552 16.1 12.0176 14.9032 12.5914L14.2146 10.2797C14.4113 10.1486 15.4049 9.76821 17.8051 9.29603C20.8054 8.70581 22.0842 9.00092 23.609 12.5914C25.1337 16.182 26.3142 20.6578 26.1666 24.2976C26.019 27.9373 24.0024 31.036 23.8549 32.364C23.7073 33.692 23.7073 34.7249 22.6253 35.6594C21.7596 36.407 20.1005 35.7379 19.3298 35.4134C18.4104 35.0263 18.3479 35.0201 15.5355 34.7389L15.395 34.7249C10.7363 34.259 6.88595 31.577 4.57424 29.1177C2.94914 27.3889 1.23035 24.7739 0.325656 23.2751C0.110385 22.9185 0.0152321 22.4986 0.101013 22.091C1.11045 17.294 7.45074 13.2989 10.624 11.8537L9.3513 8.00284C8.96585 6.83659 9.37017 5.55454 10.355 4.82043L16.3168 0.376167C16.5901 0.172439 16.9786 0.241909 17.1644 0.527712L17.8048 1.51301C17.9719 1.76999 17.9144 2.11207 17.6726 2.30037L11.6569 6.98432Z" fill="#FBBF24"/>
<path d="M6.60998 6.68579C7.26435 7.41251 8.19306 9.62864 7.46634 10.283C6.73962 10.9374 4.63266 9.78219 3.97829 9.05547C3.32393 8.32875 3.38258 7.20915 4.1093 6.55479C4.83602 5.90042 5.95561 5.95907 6.60998 6.68579Z" fill="#FBBF24"/>
<path d="M3.19429 11.2908C3.97634 11.0813 5.96022 11.2292 6.16977 12.0113C6.37932 12.7933 4.73519 13.9133 3.95314 14.1229C3.17109 14.3324 2.36724 13.8683 2.15769 13.0863C1.94813 12.3042 2.41224 11.5004 3.19429 11.2908Z" fill="#FBBF24"/>
</g>
<defs>
<clipPath id="clip0_525_18">
<rect width="27" height="36" fill="white"/>
</clipPath>
</defs>
</svg>
